# xmcd
#
# Track frame offsets:
#	150
#	12091
#	25432
#	36693
#	50668
#	68894
#	81072
#	96213
#	113323
#	137535
#	152389
#	163716
#
# Disc length: 2365 seconds
# Revision: 1
# Processed by: cddbd v1.5.2PL0 Copyright (c) Steve Scherf et al.
# Submitted via: dBpowerAMP V12.0
#
DISCID=91093b0c
DTITLE=Johnny Cash - The Box Set Series
DYEAR=2013
DGENRE=Country
TTITLE0=What is Truth
TTITLE1=Singing in Viet Nam Talkin' Blues
TTITLE2=Route #1, Box 144
TTITLE3=Oney
TTITLE4=One Piece at a Time
TTITLE5=Hit the Road and Go
TTITLE6=Rockabilly Blues )Texas 1955)
TTITLE7=(Ghost) Riders in the Sky
TTITLE8=Highway Patrolman
TTITLE9=There Ain't No Good Chain Gang
TTITLE10=Without Love
TTITLE11=Highwayman
EXTD=
EXTT0=
EXTT1=
EXTT2=
EXTT3=
EXTT4=
EXTT5=
EXTT6=
EXTT7=
EXTT8=
EXTT9=
EXTT10=
EXTT11=
PLAYORDER=
